<?xml version="1.0" encoding="UTF-8"?>
<svg xmlns="http://www.w3.org/2000/svg" xmlns:xlink="http://www.w3.org/1999/xlink" width="800pt" height="577.215pt" viewBox="0 0 800 577.215">
<defs>
<clipPath id="clip-0">
<path clip-rule="nonzero" d="M 0.542969 0 L 799.457031 0 L 799.457031 576.429688 L 0.542969 576.429688 Z M 0.542969 0 "/>
</clipPath>
</defs>
<g clip-path="url(#clip-0)">
<path fill-rule="nonzero" fill="rgb(0%, 0%, 0%)" fill-opacity="1" d="M 730.691406 508.5 C 709.550781 529.082031 676.753906 539.375 632.269531 539.375 L 405.800781 539.375 L 405.800781 282.460938 L 632.269531 282.460938 C 676.753906 282.460938 709.550781 292.90625 730.691406 313.738281 C 751.804688 334.625 762.398438 367.019531 762.398438 410.917969 C 762.398438 455.375 751.804688 487.921875 730.691406 508.5 M 726.839844 265.53125 C 741.691406 258.941406 753.78125 250.828125 763.136719 241.195312 C 772.488281 231.566406 779.789062 221.273438 785.007812 210.273438 C 790.230469 199.273438 793.929688 187.871094 796.136719 176.058594 C 798.339844 164.246094 799.457031 152.535156 799.457031 140.976562 C 799.457031 125.0625 797.25 108.738281 792.839844 91.957031 C 788.457031 75.175781 780.066406 60.070312 767.671875 46.585938 C 755.304688 33.101562 738.398438 22 716.953125 13.179688 C 695.484375 4.359375 667.425781 0 632.777344 0 L 368.742188 0 L 368.742188 37.054688 L 632.269531 37.054688 C 661.371094 37.054688 684.433594 40.351562 701.441406 46.941406 C 718.449219 53.53125 731.503906 62.046875 740.578125 72.441406 C 749.625 82.882812 755.53125 94.136719 758.269531 106.203125 C 761.003906 118.316406 762.398438 130.078125 762.398438 141.636719 C 762.398438 152.636719 761.003906 164.296875 758.269531 176.613281 C 755.53125 188.984375 749.625 200.238281 740.578125 210.375 C 731.503906 220.566406 718.449219 228.929688 701.441406 235.519531 C 684.433594 242.109375 661.371094 245.40625 632.269531 245.40625 L 402.8125 245.40625 C 402.332031 241.613281 402.042969 237.699219 401.4375 233.988281 C 401.121094 232.042969 400.589844 230.234375 400.234375 228.3125 C 399.371094 223.613281 398.371094 218.996094 397.292969 214.433594 C 396.148438 209.613281 394.851562 204.886719 393.46875 200.21875 C 392.117188 195.648438 390.75 191.082031 389.167969 186.65625 C 388.777344 185.570312 388.511719 184.402344 388.109375 183.328125 C 385.570312 176.539062 382.855469 169.863281 379.765625 163.433594 C 377.460938 158.640625 374.867188 154.226562 372.40625 149.644531 C 365.640625 137.039062 358.484375 124.957031 350.53125 113.933594 C 339.6875 98.902344 327.746094 85.34375 314.710938 73.253906 C 307.179688 66.28125 299.375 59.945312 291.429688 53.957031 C 290.976562 53.617188 290.511719 53.320312 290.054688 52.984375 C 276.71875 43.058594 262.828125 34.457031 248.34375 27.277344 C 242.144531 24.128906 235.835938 21.234375 229.402344 18.65625 C 229.285156 18.609375 229.179688 18.546875 229.066406 18.503906 C 205.800781 9.261719 183.535156 3.476562 162.277344 1.160156 C 155.191406 0.386719 148.21875 0 141.355469 0 L 0.542969 0 L 0.542969 37.054688 L 141.355469 37.054688 C 164.953125 37.054688 190.070312 42.378906 216.710938 53.074219 C 230.023438 58.421875 242.820312 65.101562 255.105469 73.117188 C 267.386719 81.132812 279.160156 90.488281 290.417969 101.183594 C 307.300781 117.226562 322.019531 136.011719 334.574219 157.59375 C 338.757812 164.789062 342.703125 172.292969 346.40625 180.113281 C 346.480469 180.269531 346.527344 180.441406 346.601562 180.597656 C 349.609375 186.964844 352.140625 193.652344 354.53125 200.4375 C 356.769531 207.0625 358.738281 213.871094 360.480469 220.828125 C 360.480469 220.839844 360.484375 220.855469 360.488281 220.867188 C 361.949219 226.707031 363.191406 232.695312 364.292969 238.777344 C 364.753906 241.457031 365.125 244.195312 365.503906 246.925781 C 366.203125 251.640625 366.945312 256.324219 367.375 261.21875 C 368.152344 270.128906 368.648438 279.222656 368.648438 288.644531 C 368.648438 299.101562 368.148438 309.21875 367.1875 319.035156 C 366.359375 327.5 365.066406 335.660156 363.527344 343.648438 C 363.027344 346.25 362.410156 348.769531 361.835938 351.320312 C 360.527344 357.105469 359.03125 362.761719 357.332031 368.289062 C 356.609375 370.644531 355.917969 373.019531 355.125 375.328125 C 352.554688 382.785156 349.746094 390.078125 346.441406 397.046875 C 346.429688 397.074219 346.417969 397.101562 346.40625 397.128906 C 342.703125 404.949219 338.757812 412.449219 334.574219 419.628906 C 326.207031 433.988281 316.871094 447.074219 306.578125 458.886719 C 301.429688 464.792969 296.042969 470.378906 290.417969 475.652344 C 279.160156 486.222656 267.386719 495.476562 255.105469 503.421875 C 242.820312 511.367188 230.023438 518.007812 216.710938 523.355469 C 203.390625 528.703125 190.449219 532.707031 177.890625 535.375 C 165.332031 538.042969 153.152344 539.375 141.355469 539.375 L 37.601562 539.375 L 37.601562 245.40625 L 0.542969 245.40625 L 0.542969 576.429688 L 141.355469 576.429688 C 148.21875 576.429688 155.191406 576.046875 162.277344 575.273438 C 183.535156 572.957031 205.800781 567.167969 229.066406 557.929688 C 229.179688 557.882812 229.289062 557.824219 229.402344 557.777344 C 235.839844 555.199219 242.140625 552.300781 248.339844 549.152344 C 262.824219 541.972656 276.714844 533.371094 290.050781 523.429688 C 290.507812 523.097656 290.972656 522.792969 291.425781 522.457031 C 299.375 516.460938 307.179688 510.113281 314.710938 503.128906 C 327.746094 491.0625 339.6875 477.515625 350.53125 462.492188 C 357.042969 453.472656 363.023438 443.742188 368.742188 433.660156 L 368.742188 576.429688 L 632.777344 576.429688 C 687.78125 576.429688 729.296875 562.589844 757.355469 534.914062 C 785.414062 507.234375 799.457031 465.96875 799.457031 411.121094 C 799.457031 339.847656 775.25 291.28125 726.839844 265.53125 "/>
</g>
</svg>
