<?xml version="1.0" encoding="UTF-8"?>
<svg xmlns="http://www.w3.org/2000/svg" xmlns:xlink="http://www.w3.org/1999/xlink" width="1080pt" height="139.797pt" viewBox="0 0 1080 139.797">
<defs>
<clipPath id="clip-0">
<path clip-rule="nonzero" d="M 0.78125 0 L 59 0 L 59 83 L 0.78125 83 Z M 0.78125 0 "/>
</clipPath>
<clipPath id="clip-1">
<path clip-rule="nonzero" d="M 998 0 L 1079.214844 0 L 1079.214844 83 L 998 83 Z M 998 0 "/>
</clipPath>
<clipPath id="clip-2">
<path clip-rule="nonzero" d="M 0.78125 35 L 7 35 L 7 83 L 0.78125 83 Z M 0.78125 35 "/>
</clipPath>
<clipPath id="clip-3">
<path clip-rule="nonzero" d="M 373 113 L 396 113 L 396 139.59375 L 373 139.59375 Z M 373 113 "/>
</clipPath>
</defs>
<g clip-path="url(#clip-0)">
<path fill-rule="nonzero" fill="rgb(100%, 100%, 100%)" fill-opacity="1" d="M 33.148438 3.207031 C 37.535156 4.957031 41.582031 7.546875 45.277344 10.960938 C 48.964844 14.386719 52.039062 18.644531 54.488281 23.734375 C 56.9375 28.828125 58.164062 34.71875 58.164062 41.402344 C 58.164062 48.09375 56.9375 53.980469 54.488281 59.074219 C 52.039062 64.167969 48.964844 68.421875 45.277344 71.84375 C 41.582031 75.265625 37.535156 77.851562 33.148438 79.597656 C 28.753906 81.347656 24.609375 82.222656 20.722656 82.222656 L 0.78125 82.222656 L 0.78125 76.976562 L 20.722656 76.976562 C 24.066406 76.976562 27.621094 76.21875 31.394531 74.703125 C 35.167969 73.191406 38.644531 70.941406 41.832031 67.949219 C 45.019531 64.960938 47.667969 61.257812 49.761719 56.828125 C 51.863281 52.40625 52.914062 47.285156 52.914062 41.464844 C 52.914062 35.640625 51.863281 30.519531 49.761719 26.09375 C 47.667969 21.667969 45.019531 17.945312 41.832031 14.914062 C 38.644531 11.886719 35.167969 9.617188 31.394531 8.101562 C 27.621094 6.589844 24.066406 5.832031 20.722656 5.832031 L 0.78125 5.832031 L 0.78125 0.585938 L 20.722656 0.585938 C 24.609375 0.585938 28.753906 1.460938 33.148438 3.207031 "/>
</g>
<path fill-rule="nonzero" fill="rgb(100%, 100%, 100%)" fill-opacity="1" d="M 90.816406 0.585938 L 96.066406 0.585938 L 96.066406 82.222656 L 90.816406 82.222656 Z M 90.816406 0.585938 "/>
<path fill-rule="nonzero" fill="rgb(100%, 100%, 100%)" fill-opacity="1" d="M 132.6875 68.8125 C 133.851562 69.511719 135.347656 70.347656 137.175781 71.316406 C 139 72.289062 141.042969 73.242188 143.296875 74.175781 C 145.550781 75.109375 147.960938 75.90625 150.53125 76.566406 C 153.097656 77.230469 155.660156 77.554688 158.226562 77.554688 C 159.082031 77.554688 160.210938 77.5 161.605469 77.382812 C 163.007812 77.265625 164.527344 76.996094 166.160156 76.566406 C 167.789062 76.136719 169.441406 75.515625 171.113281 74.699219 C 172.785156 73.882812 174.28125 72.796875 175.601562 71.4375 C 176.921875 70.074219 178.011719 68.386719 178.871094 66.359375 C 179.722656 64.339844 180.152344 61.890625 180.152344 59.011719 C 180.152344 56.605469 179.667969 54.542969 178.695312 52.832031 C 177.71875 51.121094 176.480469 49.722656 174.964844 48.636719 C 173.445312 47.546875 171.792969 46.695312 170.007812 46.066406 C 168.214844 45.445312 166.507812 45.003906 164.875 44.726562 C 163.242188 44.457031 161.824219 44.28125 160.617188 44.203125 C 159.410156 44.128906 158.613281 44.085938 158.226562 44.085938 C 155.660156 44.085938 152.800781 43.773438 149.65625 43.152344 C 146.507812 42.53125 143.546875 41.464844 140.792969 39.945312 C 138.03125 38.429688 135.699219 36.351562 133.792969 33.707031 C 131.886719 31.0625 130.933594 27.757812 130.933594 23.792969 C 130.933594 19.441406 131.730469 15.746094 133.328125 12.714844 C 134.917969 9.679688 137 7.234375 139.566406 5.367188 C 142.132812 3.5 145.046875 2.140625 148.316406 1.285156 C 151.578125 0.429688 154.882812 0 158.226562 0 C 161.492188 0 164.660156 0.410156 167.730469 1.226562 C 170.804688 2.042969 173.621094 2.992188 176.1875 4.085938 C 178.75 5.171875 180.929688 6.242188 182.71875 7.289062 C 184.503906 8.339844 185.75 9.101562 186.449219 9.566406 L 183.652344 13.996094 C 182.484375 13.296875 180.988281 12.441406 179.160156 11.429688 C 177.332031 10.421875 175.292969 9.46875 173.035156 8.570312 C 170.78125 7.683594 168.390625 6.902344 165.863281 6.242188 C 163.335938 5.582031 160.792969 5.246094 158.226562 5.246094 C 156.90625 5.246094 155.019531 5.40625 152.570312 5.71875 C 150.121094 6.03125 147.671875 6.8125 145.226562 8.058594 C 142.773438 9.308594 140.65625 11.179688 138.867188 13.675781 C 137.074219 16.171875 136.1875 19.566406 136.1875 23.855469 C 136.1875 26.277344 136.671875 28.34375 137.640625 30.058594 C 138.609375 31.773438 139.847656 33.183594 141.363281 34.273438 C 142.875 35.367188 144.519531 36.226562 146.304688 36.847656 C 148.089844 37.472656 149.796875 37.921875 151.425781 38.191406 C 153.054688 38.46875 154.488281 38.644531 155.730469 38.722656 C 156.96875 38.800781 157.785156 38.839844 158.171875 38.839844 C 160.730469 38.839844 163.585938 39.148438 166.726562 39.769531 C 169.867188 40.390625 172.8125 41.457031 175.566406 42.96875 C 178.320312 44.480469 180.644531 46.554688 182.546875 49.191406 C 184.449219 51.824219 185.398438 55.125 185.398438 59.078125 C 185.398438 63.421875 184.621094 67.105469 183.0625 70.128906 C 181.5 73.152344 179.421875 75.597656 176.820312 77.457031 C 174.21875 79.320312 171.289062 80.671875 168.023438 81.527344 C 164.757812 82.378906 161.492188 82.804688 158.226562 82.804688 C 154.960938 82.804688 151.792969 82.398438 148.71875 81.582031 C 145.648438 80.765625 142.832031 79.8125 140.265625 78.722656 C 137.699219 77.636719 135.503906 76.566406 133.675781 75.515625 C 131.847656 74.464844 130.585938 73.707031 129.886719 73.242188 Z M 132.6875 68.8125 "/>
<path fill-rule="nonzero" fill="rgb(100%, 100%, 100%)" fill-opacity="1" d="M 274.039062 82.222656 L 220.273438 82.222656 L 220.273438 76.972656 L 274.039062 76.972656 Z M 225.519531 5.832031 L 225.519531 35.339844 L 274.039062 35.339844 L 274.039062 40.585938 L 220.273438 40.585938 L 220.273438 0.585938 L 274.039062 0.585938 L 274.039062 5.832031 Z M 225.519531 5.832031 "/>
<path fill-rule="nonzero" fill="rgb(100%, 100%, 100%)" fill-opacity="1" d="M 368.617188 82.222656 L 364.652344 82.222656 L 313.101562 11.195312 L 313.101562 82.222656 L 307.855469 82.222656 L 307.855469 0.585938 L 311.703125 0.585938 L 368.617188 78.609375 Z M 368.617188 82.222656 "/>
<path fill-rule="nonzero" fill="rgb(100%, 100%, 100%)" fill-opacity="1" d="M 368.617188 23.210938 L 363.371094 23.210938 L 363.371094 0.585938 L 368.617188 0.585938 Z M 368.617188 23.210938 "/>
<path fill-rule="nonzero" fill="rgb(100%, 100%, 100%)" fill-opacity="1" d="M 326.925781 0.585938 L 349.550781 0.585938 L 349.550781 5.832031 L 326.925781 5.832031 Z M 326.925781 0.585938 "/>
<path fill-rule="nonzero" fill="rgb(100%, 100%, 100%)" fill-opacity="1" d="M 444.894531 76.976562 C 448.234375 76.976562 451.8125 76.21875 455.625 74.703125 C 459.433594 73.191406 462.910156 70.941406 466.0625 67.949219 C 469.210938 64.960938 471.832031 61.253906 473.933594 56.832031 C 476.035156 52.40625 477.082031 47.285156 477.082031 41.464844 C 477.082031 35.640625 476.035156 30.519531 473.933594 26.09375 C 471.832031 21.667969 469.210938 17.945312 466.0625 14.914062 C 462.910156 11.886719 459.433594 9.617188 455.625 8.101562 C 451.8125 6.589844 448.234375 5.832031 444.894531 5.832031 L 438.59375 5.832031 C 435.25 5.832031 431.695312 6.589844 427.921875 8.101562 C 424.152344 9.617188 420.691406 11.886719 417.542969 14.914062 C 414.398438 17.945312 411.773438 21.667969 409.671875 26.09375 C 407.574219 30.519531 406.523438 35.640625 406.523438 41.464844 C 406.523438 47.285156 407.574219 52.40625 409.671875 56.832031 C 411.773438 61.253906 414.398438 64.960938 417.542969 67.949219 C 420.691406 70.941406 424.152344 73.191406 427.921875 74.703125 C 431.695312 76.21875 435.25 76.976562 438.59375 76.976562 Z M 444.894531 0.585938 C 448.855469 0.585938 453.035156 1.460938 457.429688 3.210938 C 461.824219 4.957031 465.863281 7.5625 469.558594 11.023438 C 473.25 14.484375 476.300781 18.757812 478.714844 23.851562 C 481.125 28.945312 482.328125 34.832031 482.328125 41.519531 C 482.328125 48.207031 481.125 54.078125 478.714844 59.132812 C 476.300781 64.1875 473.25 68.421875 469.558594 71.839844 C 465.863281 75.265625 461.824219 77.851562 457.429688 79.597656 C 453.035156 81.347656 448.855469 82.222656 444.894531 82.222656 L 438.59375 82.222656 C 434.707031 82.222656 430.566406 81.347656 426.175781 79.597656 C 421.78125 77.851562 417.738281 75.265625 414.042969 71.839844 C 410.351562 68.421875 407.300781 64.1875 404.890625 59.132812 C 402.480469 54.078125 401.273438 48.207031 401.273438 41.519531 C 401.273438 34.832031 402.480469 28.945312 404.890625 23.851562 C 407.300781 18.757812 410.351562 14.484375 414.042969 11.023438 C 417.738281 7.5625 421.78125 4.957031 426.175781 3.210938 C 430.566406 1.460938 434.707031 0.585938 438.59375 0.585938 Z M 444.894531 0.585938 "/>
<path fill-rule="nonzero" fill="rgb(100%, 100%, 100%)" fill-opacity="1" d="M 604.785156 76.976562 C 611.085938 76.976562 615.730469 75.519531 618.722656 72.601562 C 621.714844 69.683594 623.214844 65.078125 623.214844 58.78125 C 623.214844 52.5625 621.714844 47.976562 618.722656 45.019531 C 615.730469 42.066406 611.085938 40.585938 604.785156 40.585938 L 572.710938 40.585938 L 572.710938 76.976562 Z M 618.175781 38.1875 C 625.035156 41.839844 628.460938 48.714844 628.460938 58.808594 C 628.460938 66.574219 626.472656 72.417969 622.5 76.339844 C 618.527344 80.261719 612.648438 82.222656 604.855469 82.222656 L 567.464844 82.222656 L 567.464844 35.339844 L 604.785156 35.339844 C 608.90625 35.339844 612.171875 34.875 614.582031 33.941406 C 616.988281 33.007812 618.839844 31.820312 620.125 30.382812 C 621.40625 28.945312 622.242188 27.347656 622.628906 25.601562 C 623.015625 23.851562 623.214844 22.203125 623.214844 20.644531 C 623.214844 19.011719 623.015625 17.339844 622.628906 15.628906 C 622.242188 13.921875 621.40625 12.328125 620.125 10.847656 C 618.839844 9.371094 616.988281 8.164062 614.582031 7.234375 C 612.171875 6.300781 608.90625 5.832031 604.785156 5.832031 L 567.464844 5.832031 L 567.464844 0.585938 L 604.855469 0.585938 C 609.765625 0.585938 613.738281 1.207031 616.777344 2.457031 C 619.8125 3.699219 622.207031 5.277344 623.960938 7.183594 C 625.714844 9.09375 626.902344 11.230469 627.523438 13.609375 C 628.148438 15.984375 628.460938 18.300781 628.460938 20.554688 C 628.460938 22.191406 628.304688 23.84375 627.992188 25.519531 C 627.679688 27.195312 627.15625 28.808594 626.414062 30.367188 C 625.675781 31.925781 624.640625 33.382812 623.316406 34.746094 C 621.992188 36.113281 620.28125 37.257812 618.175781 38.1875 "/>
<path fill-rule="nonzero" fill="rgb(100%, 100%, 100%)" fill-opacity="1" d="M 660.996094 82.222656 L 660.996094 0.585938 L 666.242188 0.585938 L 666.242188 76.976562 L 701.230469 76.976562 L 701.230469 82.222656 Z M 660.996094 82.222656 "/>
<path fill-rule="nonzero" fill="rgb(100%, 100%, 100%)" fill-opacity="1" d="M 791.386719 82.222656 L 786.019531 82.222656 L 777.390625 54.464844 L 744.382812 54.464844 L 735.871094 82.222656 L 730.390625 82.222656 L 740.535156 49.21875 L 775.757812 49.21875 L 762.460938 5.832031 L 753.832031 5.832031 L 755.464844 0.585938 L 766.308594 0.585938 Z M 791.386719 82.222656 "/>
<path fill-rule="nonzero" fill="rgb(100%, 100%, 100%)" fill-opacity="1" d="M 883.636719 23.210938 L 878.386719 23.210938 L 878.386719 0.585938 L 883.636719 0.585938 Z M 883.636719 82.222656 L 879.667969 82.222656 L 828.117188 11.195312 L 828.117188 82.222656 L 822.871094 82.222656 L 822.871094 0.585938 L 826.71875 0.585938 L 883.636719 78.609375 Z M 883.636719 82.222656 "/>
<path fill-rule="nonzero" fill="rgb(100%, 100%, 100%)" fill-opacity="1" d="M 941.191406 79.597656 C 936.796875 77.851562 932.753906 75.265625 929.0625 71.84375 C 925.367188 68.421875 922.316406 64.183594 919.90625 59.128906 C 917.496094 54.078125 916.289062 48.207031 916.289062 41.519531 C 916.289062 34.832031 917.496094 28.945312 919.90625 23.851562 C 922.316406 18.757812 925.367188 14.484375 929.0625 11.023438 C 932.753906 7.5625 936.796875 4.957031 941.191406 3.207031 C 945.582031 1.460938 949.722656 0.585938 953.609375 0.585938 L 973.671875 0.585938 L 973.671875 5.832031 L 953.609375 5.832031 C 950.269531 5.832031 946.710938 6.589844 942.9375 8.101562 C 939.167969 9.617188 935.710938 11.886719 932.5625 14.914062 C 929.414062 17.945312 926.789062 21.667969 924.6875 26.09375 C 922.589844 30.519531 921.535156 35.640625 921.535156 41.464844 C 921.535156 47.285156 922.589844 52.40625 924.6875 56.828125 C 926.789062 61.257812 929.414062 64.960938 932.5625 67.949219 C 935.710938 70.941406 939.167969 73.191406 942.9375 74.703125 C 946.710938 76.21875 950.269531 76.976562 953.609375 76.976562 L 973.671875 76.976562 L 973.671875 82.222656 L 953.609375 82.222656 C 949.722656 82.222656 945.582031 81.347656 941.191406 79.597656 "/>
<g clip-path="url(#clip-1)">
<path fill-rule="nonzero" fill="rgb(100%, 100%, 100%)" fill-opacity="1" d="M 1041.78125 76.976562 C 1045.125 76.976562 1048.699219 76.21875 1052.511719 74.703125 C 1056.320312 73.191406 1059.796875 70.941406 1062.949219 67.949219 C 1066.097656 64.960938 1068.722656 61.253906 1070.820312 56.832031 C 1072.921875 52.40625 1073.96875 47.285156 1073.96875 41.464844 C 1073.96875 35.640625 1072.921875 30.519531 1070.820312 26.09375 C 1068.722656 21.667969 1066.097656 17.945312 1062.949219 14.914062 C 1059.796875 11.886719 1056.320312 9.617188 1052.511719 8.101562 C 1048.699219 6.589844 1045.125 5.832031 1041.78125 5.832031 L 1035.480469 5.832031 C 1032.140625 5.832031 1028.582031 6.589844 1024.808594 8.101562 C 1021.039062 9.617188 1017.582031 11.886719 1014.433594 14.914062 C 1011.285156 17.945312 1008.660156 21.667969 1006.558594 26.09375 C 1004.460938 30.519531 1003.410156 35.640625 1003.410156 41.464844 C 1003.410156 47.285156 1004.460938 52.40625 1006.558594 56.832031 C 1008.660156 61.253906 1011.285156 64.960938 1014.433594 67.949219 C 1017.582031 70.941406 1021.039062 73.191406 1024.808594 74.703125 C 1028.582031 76.21875 1032.140625 76.976562 1035.480469 76.976562 Z M 1041.78125 0.585938 C 1045.746094 0.585938 1049.921875 1.460938 1054.316406 3.210938 C 1058.710938 4.957031 1062.75 7.5625 1066.445312 11.023438 C 1070.140625 14.484375 1073.191406 18.757812 1075.601562 23.851562 C 1078.011719 28.945312 1079.21875 34.832031 1079.21875 41.519531 C 1079.21875 48.207031 1078.011719 54.078125 1075.601562 59.132812 C 1073.191406 64.1875 1070.140625 68.421875 1066.445312 71.839844 C 1062.75 75.265625 1058.710938 77.851562 1054.316406 79.597656 C 1049.921875 81.347656 1045.746094 82.222656 1041.78125 82.222656 L 1035.480469 82.222656 C 1031.59375 82.222656 1027.453125 81.347656 1023.0625 79.597656 C 1018.667969 77.851562 1014.625 75.265625 1010.933594 71.839844 C 1007.238281 68.421875 1004.1875 64.1875 1001.78125 59.132812 C 999.367188 54.078125 998.160156 48.207031 998.160156 41.519531 C 998.160156 34.832031 999.367188 28.945312 1001.78125 23.851562 C 1004.1875 18.757812 1007.238281 14.484375 1010.933594 11.023438 C 1014.625 7.5625 1018.667969 4.957031 1023.0625 3.210938 C 1027.453125 1.460938 1031.59375 0.585938 1035.480469 0.585938 Z M 1041.78125 0.585938 "/>
</g>
<g clip-path="url(#clip-2)">
<path fill-rule="nonzero" fill="rgb(100%, 100%, 100%)" fill-opacity="1" d="M 0.78125 35.339844 L 6.03125 35.339844 L 6.03125 82.222656 L 0.78125 82.222656 Z M 0.78125 35.339844 "/>
</g>
<path fill-rule="nonzero" fill="rgb(100%, 100%, 100%)" fill-opacity="1" d="M 281.960938 127.941406 L 292.15625 127.941406 L 287.042969 115.875 Z M 276.789062 135.941406 L 286.1875 113.71875 L 287.929688 113.71875 L 297.363281 135.941406 L 295.363281 135.941406 L 292.851562 129.78125 L 281.296875 129.78125 L 278.753906 135.941406 Z M 276.789062 135.941406 "/>
<path fill-rule="nonzero" fill="rgb(100%, 100%, 100%)" fill-opacity="1" d="M 329.109375 124.320312 L 336.542969 124.320312 C 338.445312 124.320312 339.84375 123.957031 340.730469 123.226562 C 341.621094 122.496094 342.066406 121.402344 342.066406 119.941406 C 342.066406 118.480469 341.621094 117.382812 340.730469 116.652344 C 339.84375 115.925781 338.445312 115.558594 336.542969 115.558594 L 329.109375 115.558594 Z M 327.207031 135.941406 L 327.207031 113.71875 L 336.542969 113.71875 C 338.871094 113.71875 340.683594 114.226562 341.988281 115.242188 C 343.289062 116.257812 343.941406 117.824219 343.941406 119.941406 C 343.941406 121.804688 343.453125 123.210938 342.476562 124.164062 C 341.503906 125.117188 340.117188 125.710938 338.320312 125.941406 L 343.90625 135.941406 L 341.78125 135.941406 L 336.289062 126.164062 L 329.109375 126.164062 L 329.109375 135.941406 Z M 327.207031 135.941406 "/>
<g clip-path="url(#clip-3)">
<path fill-rule="nonzero" fill="rgb(100%, 100%, 100%)" fill-opacity="1" d="M 384.199219 134.453125 C 385.429688 134.453125 386.59375 134.21875 387.695312 133.753906 C 388.792969 133.289062 389.761719 132.628906 390.597656 131.785156 C 391.433594 130.9375 392.09375 129.921875 392.582031 128.734375 C 393.070312 127.550781 393.3125 126.25 393.3125 124.832031 C 393.3125 123.371094 393.074219 122.046875 392.597656 120.859375 C 392.125 119.675781 391.472656 118.664062 390.644531 117.828125 C 389.820312 116.992188 388.851562 116.347656 387.742188 115.894531 C 386.628906 115.4375 385.449219 115.210938 384.199219 115.210938 C 382.929688 115.210938 381.738281 115.4375 380.628906 115.894531 C 379.515625 116.347656 378.546875 116.992188 377.722656 117.828125 C 376.898438 118.664062 376.246094 119.675781 375.769531 120.859375 C 375.292969 122.046875 375.054688 123.371094 375.054688 124.832031 C 375.054688 126.269531 375.296875 127.582031 375.785156 128.765625 C 376.273438 129.953125 376.929688 130.964844 377.753906 131.800781 C 378.582031 132.636719 379.546875 133.289062 380.660156 133.753906 C 381.773438 134.21875 382.949219 134.453125 384.199219 134.453125 M 384.199219 136.261719 C 382.699219 136.261719 381.273438 135.980469 379.929688 135.417969 C 378.585938 134.859375 377.410156 134.074219 376.40625 133.070312 C 375.398438 132.066406 374.605469 130.863281 374.023438 129.464844 C 373.441406 128.070312 373.152344 126.523438 373.152344 124.832031 C 373.152344 123.113281 373.4375 121.554688 374.007812 120.148438 C 374.578125 118.738281 375.367188 117.539062 376.375 116.542969 C 377.378906 115.546875 378.554688 114.777344 379.898438 114.226562 C 381.242188 113.675781 382.675781 113.398438 384.199219 113.398438 C 385.726562 113.398438 387.152344 113.671875 388.488281 114.207031 C 389.820312 114.75 390.984375 115.523438 391.976562 116.527344 C 392.972656 117.53125 393.757812 118.738281 394.328125 120.148438 C 394.898438 121.554688 395.183594 123.113281 395.183594 124.832031 C 395.183594 126.078125 395.023438 127.253906 394.695312 128.355469 C 394.367188 129.453125 393.910156 130.457031 393.332031 131.355469 C 392.746094 132.253906 392.046875 133.042969 391.230469 133.71875 C 390.417969 134.398438 389.535156 134.949219 388.582031 135.371094 C 389.363281 135.730469 390.09375 136.175781 390.757812 136.707031 C 391.425781 137.234375 392 137.859375 392.484375 138.578125 L 390.867188 139.59375 C 390.105469 138.578125 389.195312 137.769531 388.140625 137.164062 C 387.082031 136.5625 385.765625 136.261719 384.199219 136.261719 "/>
</g>
<path fill-rule="nonzero" fill="rgb(100%, 100%, 100%)" fill-opacity="1" d="M 433.507812 136.261719 C 432.234375 136.261719 431.082031 136.039062 430.046875 135.59375 C 429.011719 135.148438 428.117188 134.527344 427.363281 133.722656 C 426.613281 132.917969 426.035156 131.949219 425.632812 130.816406 C 425.230469 129.683594 425.03125 128.4375 425.03125 127.085938 L 425.03125 113.71875 L 426.933594 113.71875 L 426.933594 127.179688 C 426.933594 128.28125 427.09375 129.273438 427.410156 130.164062 C 427.726562 131.054688 428.179688 131.816406 428.761719 132.449219 C 429.34375 133.085938 430.035156 133.570312 430.839844 133.910156 C 431.644531 134.25 432.53125 134.417969 433.507812 134.417969 C 434.523438 134.417969 435.441406 134.246094 436.253906 133.894531 C 437.070312 133.546875 437.761719 133.054688 438.335938 132.417969 C 438.90625 131.78125 439.347656 131.023438 439.667969 130.132812 C 439.984375 129.246094 440.144531 128.269531 440.144531 127.210938 L 440.144531 113.71875 L 442.019531 113.71875 L 442.019531 127.085938 C 442.019531 128.460938 441.816406 129.710938 441.414062 130.832031 C 441.011719 131.953125 440.433594 132.917969 439.683594 133.722656 C 438.929688 134.527344 438.03125 135.148438 436.984375 135.59375 C 435.9375 136.039062 434.777344 136.261719 433.507812 136.261719 "/>
<path fill-rule="nonzero" fill="rgb(100%, 100%, 100%)" fill-opacity="1" d="M 471.863281 113.71875 L 473.765625 113.71875 L 473.765625 135.945312 L 471.863281 135.945312 Z M 471.863281 113.71875 "/>
<path fill-rule="nonzero" fill="rgb(100%, 100%, 100%)" fill-opacity="1" d="M 510.535156 135.941406 L 510.535156 115.558594 L 503.617188 115.558594 L 503.617188 113.71875 L 519.332031 113.71875 L 519.332031 115.558594 L 512.472656 115.558594 L 512.472656 135.941406 Z M 510.535156 135.941406 "/>
<path fill-rule="nonzero" fill="rgb(100%, 100%, 100%)" fill-opacity="1" d="M 549.175781 135.941406 L 549.175781 113.71875 L 564.730469 113.71875 L 564.730469 115.558594 L 551.109375 115.558594 L 551.109375 123.71875 L 564.191406 123.71875 L 564.191406 125.59375 L 551.109375 125.59375 L 551.109375 134.101562 L 565.175781 134.101562 L 565.175781 135.941406 Z M 549.175781 135.941406 "/>
<path fill-rule="nonzero" fill="rgb(100%, 100%, 100%)" fill-opacity="1" d="M 606.074219 136.261719 C 604.507812 136.261719 603.050781 135.980469 601.707031 135.417969 C 600.359375 134.859375 599.191406 134.074219 598.195312 133.070312 C 597.203125 132.066406 596.425781 130.863281 595.867188 129.464844 C 595.304688 128.070312 595.023438 126.523438 595.023438 124.832031 C 595.023438 123.117188 595.304688 121.554688 595.867188 120.148438 C 596.425781 118.738281 597.199219 117.539062 598.179688 116.542969 C 599.167969 115.546875 600.335938 114.777344 601.691406 114.226562 C 603.046875 113.675781 604.507812 113.398438 606.074219 113.398438 C 607.785156 113.398438 609.363281 113.757812 610.804688 114.464844 C 612.242188 115.171875 613.429688 116.195312 614.359375 117.527344 L 612.738281 118.542969 C 611.980469 117.527344 611.070312 116.722656 610.011719 116.128906 C 608.953125 115.539062 607.636719 115.242188 606.074219 115.242188 C 604.78125 115.242188 603.582031 115.46875 602.46875 115.925781 C 601.355469 116.378906 600.390625 117.019531 599.5625 117.84375 C 598.738281 118.667969 598.09375 119.675781 597.628906 120.859375 C 597.160156 122.046875 596.925781 123.371094 596.925781 124.832031 C 596.925781 126.269531 597.167969 127.578125 597.644531 128.75 C 598.117188 129.925781 598.769531 130.9375 599.597656 131.78125 C 600.421875 132.628906 601.386719 133.28125 602.5 133.734375 C 603.613281 134.191406 604.804688 134.417969 606.074219 134.417969 C 607.511719 134.417969 608.792969 134.117188 609.914062 133.515625 C 611.039062 132.910156 611.980469 132.082031 612.738281 131.023438 L 614.457031 131.816406 C 613.542969 133.210938 612.359375 134.304688 610.898438 135.085938 C 609.4375 135.867188 607.832031 136.261719 606.074219 136.261719 "/>
<path fill-rule="nonzero" fill="rgb(100%, 100%, 100%)" fill-opacity="1" d="M 651.222656 135.941406 L 651.222656 115.558594 L 644.300781 115.558594 L 644.300781 113.71875 L 660.019531 113.71875 L 660.019531 115.558594 L 653.160156 115.558594 L 653.160156 135.941406 Z M 651.222656 135.941406 "/>
<path fill-rule="nonzero" fill="rgb(100%, 100%, 100%)" fill-opacity="1" d="M 698.339844 136.261719 C 697.066406 136.261719 695.914062 136.039062 694.875 135.59375 C 693.839844 135.148438 692.945312 134.527344 692.191406 133.722656 C 691.441406 132.917969 690.867188 131.949219 690.464844 130.816406 C 690.058594 129.683594 689.859375 128.4375 689.859375 127.085938 L 689.859375 113.71875 L 691.765625 113.71875 L 691.765625 127.179688 C 691.765625 128.28125 691.925781 129.273438 692.238281 130.164062 C 692.558594 131.054688 693.007812 131.816406 693.589844 132.449219 C 694.171875 133.085938 694.867188 133.570312 695.671875 133.910156 C 696.472656 134.25 697.363281 134.417969 698.339844 134.417969 C 699.351562 134.417969 700.269531 134.246094 701.082031 133.894531 C 701.898438 133.546875 702.589844 133.054688 703.164062 132.417969 C 703.734375 131.78125 704.179688 131.023438 704.496094 130.132812 C 704.816406 129.246094 704.972656 128.269531 704.972656 127.210938 L 704.972656 113.71875 L 706.847656 113.71875 L 706.847656 127.085938 C 706.847656 128.460938 706.644531 129.710938 706.242188 130.832031 C 705.839844 131.953125 705.261719 132.917969 704.515625 133.722656 C 703.761719 134.527344 702.863281 135.148438 701.8125 135.59375 C 700.765625 136.039062 699.609375 136.261719 698.339844 136.261719 "/>
<path fill-rule="nonzero" fill="rgb(100%, 100%, 100%)" fill-opacity="1" d="M 738.597656 124.320312 L 746.027344 124.320312 C 747.929688 124.320312 749.328125 123.957031 750.21875 123.226562 C 751.105469 122.496094 751.550781 121.402344 751.550781 119.941406 C 751.550781 118.480469 751.105469 117.382812 750.21875 116.652344 C 749.328125 115.925781 747.929688 115.558594 746.027344 115.558594 L 738.597656 115.558594 Z M 736.691406 135.941406 L 736.691406 113.71875 L 746.027344 113.71875 C 748.355469 113.71875 750.171875 114.226562 751.472656 115.242188 C 752.773438 116.257812 753.425781 117.824219 753.425781 119.941406 C 753.425781 121.804688 752.9375 123.210938 751.964844 124.164062 C 750.988281 125.117188 749.601562 125.710938 747.804688 125.941406 L 753.394531 135.941406 L 751.265625 135.941406 L 745.773438 126.164062 L 738.597656 126.164062 L 738.597656 135.941406 Z M 736.691406 135.941406 "/>
<path fill-rule="nonzero" fill="rgb(100%, 100%, 100%)" fill-opacity="1" d="M 787.808594 127.941406 L 798.003906 127.941406 L 792.890625 115.875 Z M 782.636719 135.941406 L 792.035156 113.71875 L 793.78125 113.71875 L 803.210938 135.941406 L 801.210938 135.941406 L 798.699219 129.78125 L 787.144531 129.78125 L 784.601562 135.941406 Z M 782.636719 135.941406 "/>
</svg>
